<svg width="18" height="18" viewBox="0 0 18 18" fill="none" xmlns="http://www.w3.org/2000/svg">
<g clip-path="url(#clip0_60_524)">
<path d="M9.01562 17.2538C13.572 17.2538 17.2656 13.5601 17.2656 9.00378C17.2656 4.44743 13.572 0.753784 9.01562 0.753784C4.45928 0.753784 0.765625 4.44743 0.765625 9.00378C0.765625 13.5601 4.45928 17.2538 9.01562 17.2538Z" fill="#313030"/>
<path d="M13.7884 7.21149L11.1484 4.57149C11.1233 4.54644 11.0928 4.52749 11.0592 4.51612C11.0256 4.50475 10.9899 4.50125 10.9547 4.50591C10.9196 4.51056 10.886 4.52324 10.8565 4.54296C10.8271 4.56268 10.8025 4.58892 10.7848 4.61964C10.6714 4.83228 10.6024 5.06579 10.582 5.30595C10.5617 5.54612 10.5905 5.78791 10.6666 6.01659L8.9031 7.78014C8.46759 7.55527 7.98559 7.43523 7.4955 7.42959C7.20155 7.42343 6.90929 7.4755 6.63556 7.58282C6.36184 7.69013 6.11206 7.85056 5.90062 8.05486C5.85732 8.09817 5.833 8.1569 5.833 8.21814C5.833 8.27938 5.85732 8.33811 5.90062 8.38141L7.56929 10.0502L4.9161 13.1183C4.87772 13.1624 4.85749 13.2194 4.85951 13.2778C4.86153 13.3362 4.88564 13.3917 4.92697 13.433C4.9683 13.4744 5.02378 13.4985 5.0822 13.5005C5.14062 13.5026 5.19764 13.4824 5.24175 13.444L8.30924 10.7906L9.97822 12.4595C10.0215 12.5028 10.0803 12.5271 10.1415 12.5271C10.2027 12.5271 10.2615 12.5028 10.3048 12.4595C10.6615 12.052 10.8801 11.542 10.9294 11.0027C10.9787 10.4633 10.8561 9.92221 10.5791 9.45676L12.3427 7.69321C12.5716 7.76839 12.8133 7.79669 13.0534 7.77642C13.2936 7.75615 13.5271 7.68773 13.7402 7.57524C13.771 7.55757 13.7973 7.53304 13.8171 7.50357C13.8368 7.47409 13.8495 7.44045 13.8542 7.40526C13.8589 7.37008 13.8553 7.33429 13.8439 7.30069C13.8325 7.26708 13.8135 7.23656 13.7884 7.21149Z" fill="white"/>
</g>
<defs>
<clipPath id="clip0_60_524">
<rect width="18" height="18" fill="white"/>
</clipPath>
</defs>
</svg>
